<?xml version="1.0" encoding="utf-8"?>
<!-- Generator: Adobe Illustrator 19.2.1, SVG Export Plug-In . SVG Version: 6.00 Build 0)  -->
<svg version="1.1" id="Layer_1" xmlns="http://www.w3.org/2000/svg" xmlns:xlink="http://www.w3.org/1999/xlink" x="0px" y="0px"
	 viewBox="0 0 1769.7 223.4" style="enable-background:new 0 0 1769.7 223.4;" xml:space="preserve">
<style type="text/css">
	.st0{fill:none;stroke:#F7F7F9;stroke-width:12;stroke-linecap:round;stroke-linejoin:round;stroke-miterlimit:10;}
	.st1{fill:#F7F7F9;}
	.st2{fill:#FFFFFF;}
	.st3{opacity:0.5;fill:#B5B5B5;}
	.st4{font-family:'ProbaPro-Medium';}
	.st5{font-size:12px;}
	.st6{fill:#D6D6D6;}
	.st7{opacity:0.5;}
	.st8{fill:#B5B5B5;}
	.st9{font-family:'MuseoSansCyrl-900';}
	.st10{font-size:10px;}
	.st11{letter-spacing:1;}
	.st12{fill:#EAEAEA;}
</style>
<path class="st0" d="M18.8,194.8l20.8-9.3c3-1.3,6.2-2,9.4-2h14.8c0.6,0,1.2,0,1.8,0.1l26.8,2.3l10.5,0.5c2.7,0.1,5.4,0.6,8,1.5
	l7.8,2.7l12.5,4.2c3,1,6.1,1.3,9.3,1l6.7-0.8c1.9-0.2,3.8-0.7,5.7-1.4l16.3-6.3c1.6-0.6,3.2-1.1,4.8-1.5l13.5-3.5
	c1.4-0.4,2.8-0.7,4.2-0.9l33.7-5.7c2.3-0.4,4.5-1.4,6.3-2.8l43.6-35.1c0.9-0.7,1.8-1.3,2.8-1.8l5-2.6c3-1.5,6.3-2,9.6-1.3l7.8,1.6
	c3.4,0.7,6.9,0.9,10.4,0.7l21.2-1.4c2.3-0.2,4.7-0.2,7-0.2h15.6c3.8,0,7.7-0.8,11.2-2.4l0,0c3.3-1.5,6.3-3.6,8.7-6.3l13.7-15.2
	c3.3-3.6,6.8-6.9,10.7-9.9l17.3-13.3c3.1-2.4,6.6-4,10.3-4.9l4.9-1.2c4-1,8.1-1.2,12.2-0.6l11.3,1.6c4.1,0.6,8.2,1.5,12.2,2.7
	l12.5,3.9c7.6,2.4,15.6,3.1,23.6,2.3l19.3-2.1c5.6-0.6,11.2-0.7,16.7-0.3l37.2,2.6c1.4,0.1,2.8,0.1,4.2,0.1l15.7-0.2
	c5-0.1,10,0.4,14.9,1.3l49.9,9.7c5.2,1,10.3,2.3,15.3,3.9l73.2,23.7c3.9,1.3,7.8,2.9,11.5,4.7l22.6,11.5c8.8,4.4,18.1,7.6,27.7,9.5
	l21.8,4.2c3.5,0.7,7.1,1.1,10.7,1.3l17.2,0.9c6,0.3,12,0,18-1l42.4-6.9l46.3-7.8c6.2-1,12.6-1.6,18.9-1.6h17.2
	c7,0,14.1,0.9,20.9,2.6l11,2.8c5.8,1.5,11.5,3.4,17,5.8l22.8,9.8c5.5,2.4,11.4,3.8,17.3,4.1l1.9,0.1c4.7,0.3,9.4-0.4,13.8-1.9
	l9.2-3.2c8-2.8,15.6-6.6,22.6-11.5l27.5-19.3l57.8-36.6c3.9-2.5,7.9-4.7,12.1-6.7l23.2-11.1c2.1-1,4.3-2.1,6.3-3.3l4.8-2.8
	c7.4-4.3,15.2-7.7,23.3-10.3l5-1.6c3.9-1.2,7.8-2.3,11.7-3.1l21.6-4.6c4.7-1,9.3-2.6,13.6-4.9l7.6-4c3.3-1.7,6.3-3.9,8.9-6.6
	l9.1-9.1c0.9-0.9,1.7-1.8,2.4-2.8l10.4-14.3c1.8-2.4,4.6-3.8,7.5-3.8h0.1c2.1,0,4.2,0.4,6.1,1.1c1.4,0.5,3.2,1.2,4.9,1.8
	c3.8,1.4,7.5,3.3,10.8,5.7l2.3,1.7c3.1,2.3,6,4.9,8.5,7.8l6.1,7c2.3,2.6,5.2,4.5,8.5,5.4l17.8,4.9c1,0.3,1.9,0.6,2.9,1l9.4,3.8
	c3.3,1.3,6.5,2.8,9.6,4.4l10.2,5.4c3.2,1.7,6.5,2.9,10,3.8v0c4.9,1.2,10,1.8,15,1.8l9.6,0.1c5.8,0.1,11.4,1.3,16.7,3.5l0.2,0.1
	c3.6,1.5,6.9,3.3,10.1,5.5c9.3,6.2,28.9,19.4,28.9,19.4v0c5.7,5.5,12.7,9.2,20.4,11l14.9,3.4l39.9,11.3c8.7,2.5,17.7,3.6,26.7,3.4
	l23.8-0.6c1.5,0,3,0,4.4,0.1l7.3,0.5c2.9,0.2,5.8,0.8,8.6,1.8l0.2,0.1c5.6,2,10.5,5.4,14.4,9.9c1.8,2.1,3.4,3.9,3.4,3.9v0"/>
<g>
	<path class="st1" d="M92.6,199.3c-6.9,0-12.5-5.6-12.5-12.5s5.6-12.5,12.5-12.5s12.5,5.6,12.5,12.5S99.5,199.3,92.6,199.3z"/>
	<path class="st2" d="M92.6,175.8c6.1,0,11,4.9,11,11s-4.9,11-11,11s-11-4.9-11-11S86.5,175.8,92.6,175.8 M92.6,172.8
		c-7.7,0-14,6.3-14,14s6.3,14,14,14s14-6.3,14-14S100.3,172.8,92.6,172.8L92.6,172.8z"/>
</g>
<text transform="matrix(1 0 0 1 89.5117 190.3749)" class="st3 st4 st5">1</text>
<g>
	<path class="st1" d="M173.3,198.3c-6.9,0-12.5-5.6-12.5-12.5s5.6-12.5,12.5-12.5s12.5,5.6,12.5,12.5S180.1,198.3,173.3,198.3z"/>
	<path class="st2" d="M173.3,174.8c6.1,0,11,4.9,11,11s-4.9,11-11,11c-6.1,0-11-4.9-11-11S167.2,174.8,173.3,174.8 M173.3,171.8
		c-7.7,0-14,6.3-14,14s6.3,14,14,14c7.7,0,14-6.3,14-14S181,171.8,173.3,171.8L173.3,171.8z"/>
</g>
<text transform="matrix(1 0 0 1 170.1784 189.3749)" class="st3 st4 st5">2</text>
<g>
	<path class="st1" d="M248.3,172.3c-6.9,0-12.5-5.6-12.5-12.5s5.6-12.5,12.5-12.5s12.5,5.6,12.5,12.5S255.1,172.3,248.3,172.3z"/>
	<path class="st2" d="M248.3,148.8c6.1,0,11,4.9,11,11c0,6.1-4.9,11-11,11c-6.1,0-11-4.9-11-11C237.3,153.7,242.2,148.8,248.3,148.8
		 M248.3,145.8c-7.7,0-14,6.3-14,14s6.3,14,14,14c7.7,0,14-6.3,14-14S256,145.8,248.3,145.8L248.3,145.8z"/>
</g>
<text transform="matrix(1 0 0 1 245.1784 163.3749)" class="st3 st4 st5">3</text>
<g>
	<path class="st1" d="M337.4,147.8c-6.9,0-12.5-5.6-12.5-12.5s5.6-12.5,12.5-12.5s12.5,5.6,12.5,12.5S344.2,147.8,337.4,147.8z"/>
	<path class="st2" d="M337.4,124.3c6.1,0,11,4.9,11,11s-4.9,11-11,11s-11-4.9-11-11S331.3,124.3,337.4,124.3 M337.4,121.3
		c-7.7,0-14,6.3-14,14s6.3,14,14,14s14-6.3,14-14S345.1,121.3,337.4,121.3L337.4,121.3z"/>
</g>
<text transform="matrix(1 0 0 1 334.275 138.8859)" class="st3 st4 st5">4</text>
<g>
	<path class="st1" d="M409.7,100.8c-6.9,0-12.5-5.6-12.5-12.5s5.6-12.5,12.5-12.5s12.5,5.6,12.5,12.5S416.6,100.8,409.7,100.8z"/>
	<path class="st2" d="M409.7,77.3c6.1,0,11,4.9,11,11s-4.9,11-11,11s-11-4.9-11-11S403.6,77.3,409.7,77.3 M409.7,74.3
		c-7.7,0-14,6.3-14,14s6.3,14,14,14s14-6.3,14-14S417.4,74.3,409.7,74.3L409.7,74.3z"/>
</g>
<text transform="matrix(1 0 0 1 406.6083 91.8859)" class="st3 st4 st5">5</text>
<g>
	<path class="st1" d="M489,101.8c-6.9,0-12.5-5.6-12.5-12.5s5.6-12.5,12.5-12.5s12.5,5.6,12.5,12.5S495.9,101.8,489,101.8z"/>
	<path class="st2" d="M489,78.3c6.1,0,11,4.9,11,11s-4.9,11-11,11s-11-4.9-11-11S482.9,78.3,489,78.3 M489,75.3c-7.7,0-14,6.3-14,14
		s6.3,14,14,14s14-6.3,14-14S496.7,75.3,489,75.3L489,75.3z"/>
</g>
<text transform="matrix(1 0 0 1 485.9417 92.8859)" class="st3 st4 st5">6</text>
<g>
	<path class="st1" d="M578,101.8c-6.9,0-12.5-5.6-12.5-12.5s5.6-12.5,12.5-12.5s12.5,5.6,12.5,12.5S584.9,101.8,578,101.8z"/>
	<path class="st2" d="M578,78.3c6.1,0,11,4.9,11,11s-4.9,11-11,11s-11-4.9-11-11S571.9,78.3,578,78.3 M578,75.3c-7.7,0-14,6.3-14,14
		s6.3,14,14,14c7.7,0,14-6.3,14-14S585.7,75.3,578,75.3L578,75.3z"/>
</g>
<text transform="matrix(1.0184 0 0 1 574.9431 92.8858)" class="st3 st4 st5">7</text>
<g>
	<path class="st1" d="M668,113.6c-6.9,0-12.5-5.6-12.5-12.5s5.6-12.5,12.5-12.5s12.5,5.6,12.5,12.5S674.9,113.6,668,113.6z"/>
	<path class="st2" d="M668,90.1c6.1,0,11,4.9,11,11s-4.9,11-11,11s-11-4.9-11-11S661.9,90.1,668,90.1 M668,87.1c-7.7,0-14,6.3-14,14
		s6.3,14,14,14c7.7,0,14-6.3,14-14S675.7,87.1,668,87.1L668,87.1z"/>
</g>
<text transform="matrix(1 0 0 1 664.9417 104.6549)" class="st3 st4 st5">8</text>
<g>
	<path class="st1" d="M755.4,142.9c-6.9,0-12.5-5.6-12.5-12.5c0-6.9,5.6-12.5,12.5-12.5s12.5,5.6,12.5,12.5
		C767.9,137.3,762.2,142.9,755.4,142.9z"/>
	<path class="st2" d="M755.4,119.4c6.1,0,11,4.9,11,11c0,6.1-4.9,11-11,11s-11-4.9-11-11C744.4,124.4,749.3,119.4,755.4,119.4
		 M755.4,116.4c-7.7,0-14,6.3-14,14s6.3,14,14,14s14-6.3,14-14S763.1,116.4,755.4,116.4L755.4,116.4z"/>
</g>
<text transform="matrix(1 0 0 1 752.275 133.9882)" class="st3 st4 st5">9</text>
<g>
	<path class="st1" d="M921,163.4c-6.9,0-12.5-5.6-12.5-12.5s5.6-12.5,12.5-12.5s12.5,5.6,12.5,12.5S927.9,163.4,921,163.4z"/>
	<path class="st2" d="M921,139.9c6.1,0,11,4.9,11,11s-4.9,11-11,11s-11-4.9-11-11S914.9,139.9,921,139.9 M921,136.9
		c-7.7,0-14,6.3-14,14s6.3,14,14,14s14-6.3,14-14S928.7,136.9,921,136.9L921,136.9z"/>
</g>
<text transform="matrix(1 0 0 1 914.8641 154.4386)" class="st3 st4 st5">11</text>
<g>
	<path class="st1" d="M995.4,153.9c-6.9,0-12.5-5.6-12.5-12.5s5.6-12.5,12.5-12.5s12.5,5.6,12.5,12.5S1002.2,153.9,995.4,153.9z"/>
	<path class="st2" d="M995.4,130.4c6.1,0,11,4.9,11,11s-4.9,11-11,11s-11-4.9-11-11S989.3,130.4,995.4,130.4 M995.4,127.4
		c-7.7,0-14,6.3-14,14s6.3,14,14,14s14-6.3,14-14S1003.1,127.4,995.4,127.4L995.4,127.4z"/>
</g>
<text transform="matrix(1 0 0 1 989.1974 144.9882)" class="st3 st4 st5">12</text>
<g>
	<path class="st1" d="M1082.6,180.9c-6.9,0-12.5-5.6-12.5-12.5s5.6-12.5,12.5-12.5s12.5,5.6,12.5,12.5S1089.5,180.9,1082.6,180.9z"
		/>
	<path class="st2" d="M1082.6,157.4c6.1,0,11,4.9,11,11c0,6.1-4.9,11-11,11c-6.1,0-11-4.9-11-11
		C1071.6,162.4,1076.5,157.4,1082.6,157.4 M1082.6,154.4c-7.7,0-14,6.3-14,14s6.3,14,14,14s14-6.3,14-14S1090.3,154.4,1082.6,154.4
		L1082.6,154.4z"/>
</g>
<text transform="matrix(1 0 0 1 1076.4207 171.9854)" class="st3 st4 st5">13</text>
<g>
	<path class="st1" d="M1166.8,145.6c-6.9,0-12.5-5.6-12.5-12.5c0-6.9,5.6-12.5,12.5-12.5s12.5,5.6,12.5,12.5
		C1179.3,140,1173.6,145.6,1166.8,145.6z"/>
	<path class="st2" d="M1166.8,122.1c6.1,0,11,4.9,11,11c0,6.1-4.9,11-11,11c-6.1,0-11-4.9-11-11
		C1155.8,127,1160.7,122.1,1166.8,122.1 M1166.8,119.1c-7.7,0-14,6.3-14,14s6.3,14,14,14s14-6.3,14-14S1174.5,119.1,1166.8,119.1
		L1166.8,119.1z"/>
</g>
<text transform="matrix(1 0 0 1 1160.6007 136.652)" class="st3 st4 st5">14</text>
<g>
	<path class="st1" d="M1230.8,104.4c-6.9,0-12.5-5.6-12.5-12.5s5.6-12.5,12.5-12.5s12.5,5.6,12.5,12.5S1237.6,104.4,1230.8,104.4z"
		/>
	<path class="st2" d="M1230.8,80.9c6.1,0,11,4.9,11,11s-4.9,11-11,11c-6.1,0-11-4.9-11-11S1224.7,80.9,1230.8,80.9 M1230.8,77.9
		c-7.7,0-14,6.3-14,14s6.3,14,14,14s14-6.3,14-14S1238.5,77.9,1230.8,77.9L1230.8,77.9z"/>
</g>
<text transform="matrix(1 0 0 1 1224.6007 95.4385)" class="st3 st4 st5">15</text>
<g>
	<path class="st1" d="M1305.4,69.9c-6.9,0-12.5-5.6-12.5-12.5s5.6-12.5,12.5-12.5s12.5,5.6,12.5,12.5S1312.3,69.9,1305.4,69.9z"/>
	<path class="st2" d="M1305.4,46.4c6.1,0,11,4.9,11,11s-4.9,11-11,11c-6.1,0-11-4.9-11-11S1299.3,46.4,1305.4,46.4 M1305.4,43.4
		c-7.7,0-14,6.3-14,14s6.3,14,14,14s14-6.3,14-14S1313.1,43.4,1305.4,43.4L1305.4,43.4z"/>
</g>
<text transform="matrix(1 0 0 1 1299.2026 60.9456)" class="st3 st4 st5">16</text>
<g>
	<path class="st1" d="M1372.7,38.9c-6.9,0-12.5-5.6-12.5-12.5s5.6-12.5,12.5-12.5s12.5,5.6,12.5,12.5S1379.6,38.9,1372.7,38.9z"/>
	<path class="st2" d="M1372.7,15.4c6.1,0,11,4.9,11,11s-4.9,11-11,11c-6.1,0-11-4.9-11-11S1366.6,15.4,1372.7,15.4 M1372.7,12.4
		c-7.7,0-14,6.3-14,14s6.3,14,14,14s14-6.3,14-14S1380.4,12.4,1372.7,12.4L1372.7,12.4z"/>
</g>
<text transform="matrix(1 0 0 1 1366.536 29.9456)" class="st3 st4 st5">17</text>
<g>
	<path class="st1" d="M1455.4,53.4c-6.9,0-12.5-5.6-12.5-12.5s5.6-12.5,12.5-12.5s12.5,5.6,12.5,12.5S1462.3,53.4,1455.4,53.4z"/>
	<path class="st2" d="M1455.4,29.9c6.1,0,11,4.9,11,11s-4.9,11-11,11c-6.1,0-11-4.9-11-11S1449.3,29.9,1455.4,29.9 M1455.4,26.9
		c-7.7,0-14,6.3-14,14s6.3,14,14,14s14-6.3,14-14S1463.1,26.9,1455.4,26.9L1455.4,26.9z"/>
</g>
<text transform="matrix(1 0 0 1 1449.2026 44.4982)" class="st3 st4 st5">18</text>
<g>
	<path class="st1" d="M1532.2,75.4c-6.9,0-12.5-5.6-12.5-12.5s5.6-12.5,12.5-12.5s12.5,5.6,12.5,12.5S1539,75.4,1532.2,75.4z"/>
	<path class="st2" d="M1532.2,51.9c6.1,0,11,4.9,11,11s-4.9,11-11,11c-6.1,0-11-4.9-11-11S1526.1,51.9,1532.2,51.9 M1532.2,48.9
		c-7.7,0-14,6.3-14,14s6.3,14,14,14s14-6.3,14-14S1539.9,48.9,1532.2,48.9L1532.2,48.9z"/>
</g>
<text transform="matrix(1 0 0 1 1525.9966 66.4982)" class="st3 st4 st5">19</text>
<g>
	<path class="st1" d="M1615.7,115.6c-6.9,0-12.5-5.6-12.5-12.5s5.6-12.5,12.5-12.5s12.5,5.6,12.5,12.5S1622.6,115.6,1615.7,115.6z"
		/>
	<path class="st2" d="M1615.7,92.1c6.1,0,11,4.9,11,11s-4.9,11-11,11c-6.1,0-11-4.9-11-11S1609.6,92.1,1615.7,92.1 M1615.7,89.1
		c-7.7,0-14,6.3-14,14s6.3,14,14,14s14-6.3,14-14S1623.4,89.1,1615.7,89.1L1615.7,89.1z"/>
</g>
<text transform="matrix(1 0 0 1 1609.5361 106.6918)" class="st3 st4 st5">20</text>
<g>
	<path class="st1" d="M1687,131.6c-6.9,0-12.5-5.6-12.5-12.5s5.6-12.5,12.5-12.5s12.5,5.6,12.5,12.5S1693.9,131.6,1687,131.6z"/>
	<path class="st2" d="M1687,108.1c6.1,0,11,4.9,11,11s-4.9,11-11,11c-6.1,0-11-4.9-11-11S1681,108.1,1687,108.1 M1687,105.1
		c-7.7,0-14,6.3-14,14s6.3,14,14,14s14-6.3,14-14S1694.7,105.1,1687,105.1L1687,105.1z"/>
</g>
<text transform="matrix(1 0 0 1 1680.8695 122.6918)" class="st3 st4 st5">21</text>
<g>
	<path class="st1" d="M839.2,171.7c-6.9,0-12.5-5.6-12.5-12.5s5.6-12.5,12.5-12.5s12.5,5.6,12.5,12.5S846,171.7,839.2,171.7z"/>
	<path class="st2" d="M839.2,148.2c6.1,0,11,4.9,11,11s-4.9,11-11,11s-11-4.9-11-11S833.1,148.2,839.2,148.2 M839.2,145.2
		c-7.7,0-14,6.3-14,14s6.3,14,14,14s14-6.3,14-14S846.9,145.2,839.2,145.2L839.2,145.2z"/>
</g>
<text transform="matrix(1 0 0 1 832.9965 162.7746)" class="st3 st4 st5">10</text>
<g>
	<path class="st1" d="M1751,154.6c-6.9,0-12.5-5.6-12.5-12.5s5.6-12.5,12.5-12.5s12.5,5.6,12.5,12.5S1757.9,154.6,1751,154.6z"/>
	<path class="st2" d="M1751,131.1c6.1,0,11,4.9,11,11s-4.9,11-11,11c-6.1,0-11-4.9-11-11S1745,131.1,1751,131.1 M1751,128.1
		c-7.7,0-14,6.3-14,14s6.3,14,14,14s14-6.3,14-14S1758.7,128.1,1751,128.1L1751,128.1z"/>
</g>
<g>
	<circle class="st2" cx="17.1" cy="194.1" r="8.7"/>
	<path class="st6" d="M17.9,184.1v-1.7h2.4c0.4,0,0.8-0.4,0.8-0.8c0-0.4-0.4-0.8-0.8-0.8h-8.1c-0.4,0-0.8,0.4-0.8,0.8
		c0,0.4,0.4,0.8,0.8,0.8h2.4v1.7c-5.5,0.8-9.7,5.5-9.7,11.2c0,6.3,5.1,11.3,11.3,11.3c6.2,0,11.3-5.1,11.3-11.3
		C27.6,189.6,23.4,184.9,17.9,184.1z M21.9,196.9h-6.5c-0.4,0-0.8-0.4-0.8-0.8V188c0-0.4,0.4-0.8,0.8-0.8c0.4,0,0.8,0.4,0.8,0.8v7.3
		h5.7c0.4,0,0.8,0.4,0.8,0.8C22.7,196.5,22.4,196.9,21.9,196.9z"/>
</g>
<g class="st7">
	<text transform="matrix(1 0 0 1 -0.6534 223.3892)" class="st8 st9 st10 st11">START</text>
</g>
<g class="st7">
	<text transform="matrix(1 0 0 1 1734.5527 170.2261)" class="st8 st9 st10 st11">finish</text>
</g>
<g class="st7">
	<text transform="matrix(1 0 0 1 907.6555 178.4331)" class="st8 st9 st10 st11">half</text>
</g>
<path class="st6" d="M1764.6,121.4l5-5.1c0.3-0.3,0.1-0.6-0.3-0.7h-7.6v-0.7c0-1.2-1-2.1-2.1-2.1h-7.3v-0.7c0.1-0.4,0-0.7-0.5-1.2
	c-0.2-0.2-0.4-0.3-0.6-0.3c-0.7-0.1-1.3,0.5-1.3,1.2c0,0.1,0,0.2,0,0.2v29.9c0,0.7,0.5,1.2,1.2,1.2s1.2-0.5,1.2-1.2v-17.8h5.1h4.4
	l-3.6,0.9c-0.5,0.2-0.8,0.6-0.8,1v0.9h11.8c0.3,0,0.5-0.4,0.3-0.6L1764.6,121.4z"/>
<path class="st6" d="M1736.7,22.9c0,0.3-0.3,0.6-0.6,0.6c-0.3,0-0.6-0.3-0.6-0.6c0-0.3,0.3-0.6,0.6-0.6
	C1736.4,22.3,1736.7,22.5,1736.7,22.9z M1710.4,24.7c0.1,0.2,0.4,0.4,0.6,0.3c3.1-1.2,6.2,0.4,9.6,2.1c1.8,0.9,3.7,1.9,5.7,2.5
	c0.9,0.3,1.8,0.4,2.7,0.4c4.5,0,7.8-3.3,7.9-3.5c0.2-0.2,0.2-0.5,0-0.7c-0.2-0.2-0.5-0.2-0.7,0c-0.1,0.1-4.3,4.4-9.6,2.8
	c-1.9-0.6-3.7-1.5-5.5-2.4c-3.6-1.8-6.9-3.5-10.4-2.1C1710.5,24.2,1710.3,24.5,1710.4,24.7z M1737.4,21.4c0.1,0.1,0.2,0.2,0.4,0.3
	c0,0,0.9,0.2,1.5,0.8c0.1,0.1,0.2,0.1,0.3,0.1c0.1,0,0.2,0,0.3-0.1c0.2-0.2,0.2-0.5,0-0.7c-0.6-0.6-1.3-0.9-1.7-1
	c-0.9-1.7-2.8-1.9-4.5-1.7c0.2-1.1-0.4-2.5-1.2-3.3l-0.1-0.1c-1.6-1.6-3.9-4.1-4.2-5.5c0-0.2-0.2-0.3-0.3-0.4
	c-0.2-0.1-0.4,0-0.5,0.1c0,0-2.4,2.4-0.5,5.9c0.1,0.2,0.4,0.3,0.7,0.2c0.2-0.1,0.3-0.4,0.2-0.7c-1-1.8-0.6-3.3-0.2-4.1
	c0.8,1.6,2.7,3.5,4.1,5l0.1,0.1c0.7,0.8,1.1,2.1,0.8,2.8c-1,0.2-1.8,0.5-2.1,0.6c-0.3-0.2-0.6-0.5-1-0.7c-0.5-0.3-1-0.5-1.5-0.8
	c-3.1-1.7-7-3.8-8.1-6.1c-0.1-0.2-0.2-0.3-0.4-0.3c-0.2,0-0.3,0.1-0.4,0.2c0,0-1.6,2.2-1,5c-0.1,0.1-2.3,3.2,0.9,6.3
	c0.1,0.1,0.2,0.1,0.3,0.1c0.1,0,0.2,0,0.3-0.1c0.2-0.2,0.2-0.5,0-0.7c-1.8-1.8-1.5-3.5-1.1-4.4c0.4,0.8,0.9,1.6,1.8,2.4
	c0.2,0.2,0.5,0.2,0.7,0c0.2-0.2,0.2-0.5,0-0.7c-2.9-2.9-2.1-5.6-1.5-6.8c1.6,2.2,5.2,4.2,8.1,5.8c0.5,0.3,1,0.6,1.5,0.8
	c1.8,1,3,3.1,2.4,4.3c-0.1,0.2,0,0.5,0.2,0.6c0.1,0,0.1,0,0.2,0c0.2,0,0.4-0.1,0.4-0.3c0.6-1.2,0.1-2.8-1.1-4.1
	C1732.7,20.1,1736.4,19.2,1737.4,21.4z"/>
<g>
	<path class="st12" d="M1469.5,213.9c-0.6,0-1-0.4-1-1v-15.6h-1.2c-0.6,0-1-0.4-1-1s0.4-1,1-1h1.2v-2.1c0-0.6,0.4-1,1-1s1,0.4,1,1v7
		l1.4,0c0.6,0,1,0.5,1,1c0,0.5-0.5,1-1,1c0,0,0,0,0,0l-1.4,0v10.6C1470.5,213.4,1470,213.9,1469.5,213.9z M1473.3,206
		c-0.6,0-1-0.4-1-1s0.4-1,1-1c3.8,0,7.1-3.2,7.1-6.7c0-2.1-0.8-4.2-2.1-5.4c-0.8-0.8-1.8-1.1-3-1.1c-0.4,0-0.7-0.2-0.9-0.5
		c-1.1-1.8-3-2.8-5-2.8c-2.4,0-4,0.9-5,2.8c-0.2,0.3-0.4,0.5-0.8,0.5c-3.4,0.4-4.9,3.6-4.9,6.5c0,3.7,3,6.7,6.7,6.7c0.6,0,1,0.4,1,1
		s-0.4,1-1,1c-4.8,0-8.7-3.9-8.7-8.7c0-4.3,2.5-7.7,6.1-8.4c1.4-2.2,3.6-3.4,6.5-3.4c2.6,0,4.9,1.2,6.4,3.3c1.5,0,2.8,0.6,3.9,1.6
		c1.7,1.6,2.7,4.2,2.7,6.9C1482.5,202,1478.3,206,1473.3,206z"/>
</g>
<g>
	<path class="st12" d="M1642.8,66.2c-0.6,0-1-0.4-1-1V49.6h-1.2c-0.6,0-1-0.4-1-1s0.4-1,1-1h1.2v-2.1c0-0.6,0.4-1,1-1s1,0.4,1,1v7
		l1.4,0c0.6,0,1,0.5,1,1c0,0.5-0.5,1-1,1c0,0,0,0,0,0l-1.4,0v10.6C1643.8,65.7,1643.3,66.2,1642.8,66.2z M1646.7,58.3
		c-0.6,0-1-0.4-1-1s0.4-1,1-1c3.8,0,7.1-3.2,7.1-6.7c0-2.1-0.8-4.2-2.1-5.4c-0.8-0.8-1.8-1.1-3-1.1c-0.4,0-0.7-0.2-0.9-0.5
		c-1.1-1.8-3-2.8-5-2.8c-2.4,0-4,0.9-5,2.8c-0.2,0.3-0.4,0.5-0.8,0.5c-3.4,0.4-4.9,3.6-4.9,6.5c0,3.7,3,6.7,6.7,6.7c0.6,0,1,0.4,1,1
		s-0.4,1-1,1c-4.8,0-8.7-3.9-8.7-8.7c0-4.3,2.5-7.7,6.1-8.4c1.4-2.2,3.6-3.4,6.5-3.4c2.6,0,4.9,1.2,6.4,3.3c1.5,0,2.8,0.6,3.9,1.6
		c1.7,1.6,2.7,4.2,2.7,6.9C1655.8,54.3,1651.6,58.3,1646.7,58.3z"/>
</g>
<g>
	<path class="st12" d="M1551.8,165.8c-0.6,0-1-0.4-1-1v-15.6h-1.2c-0.6,0-1-0.4-1-1s0.4-1,1-1h1.2v-2.1c0-0.6,0.4-1,1-1s1,0.4,1,1v7
		l1.4,0c0.6,0,1,0.5,1,1c0,0.5-0.5,1-1,1c0,0,0,0,0,0l-1.4,0v10.6C1552.8,165.4,1552.3,165.8,1551.8,165.8z M1555.7,157.9
		c-0.6,0-1-0.4-1-1s0.4-1,1-1c3.8,0,7.1-3.2,7.1-6.7c0-2.1-0.8-4.2-2.1-5.4c-0.8-0.8-1.8-1.1-3-1.1c-0.4,0-0.7-0.2-0.9-0.5
		c-1.1-1.8-3-2.8-5-2.8c-2.4,0-4,0.9-5,2.8c-0.2,0.3-0.4,0.5-0.8,0.5c-3.4,0.4-4.9,3.6-4.9,6.5c0,3.7,3,6.7,6.7,6.7c0.6,0,1,0.4,1,1
		s-0.4,1-1,1c-4.8,0-8.7-3.9-8.7-8.7c0-4.3,2.5-7.7,6.1-8.4c1.4-2.2,3.6-3.4,6.5-3.4c2.6,0,4.9,1.2,6.4,3.3c1.5,0,2.8,0.6,3.9,1.6
		c1.7,1.6,2.7,4.2,2.7,6.9C1564.8,153.9,1560.6,157.9,1555.7,157.9z"/>
</g>
<g>
	<path class="st12" d="M1339.9,106.1c-0.6,0-1-0.4-1-1V89.5h-1.2c-0.6,0-1-0.4-1-1s0.4-1,1-1h1.2v-2.1c0-0.6,0.4-1,1-1s1,0.4,1,1v7
		l1.4,0c0.6,0,1,0.5,1,1c0,0.5-0.5,1-1,1c0,0,0,0,0,0l-1.4,0v10.6C1340.9,105.6,1340.5,106.1,1339.9,106.1z M1343.8,98.2
		c-0.6,0-1-0.4-1-1s0.4-1,1-1c3.8,0,7.1-3.2,7.1-6.7c0-2.1-0.8-4.2-2.1-5.4c-0.8-0.8-1.8-1.1-3-1.1c-0.4,0-0.7-0.2-0.9-0.5
		c-1.1-1.8-3-2.8-5-2.8c-2.4,0-4,0.9-5,2.8c-0.2,0.3-0.4,0.5-0.8,0.5c-3.4,0.4-4.9,3.6-4.9,6.5c0,3.7,3,6.7,6.7,6.7c0.6,0,1,0.4,1,1
		s-0.4,1-1,1c-4.8,0-8.7-3.9-8.7-8.7c0-4.3,2.5-7.7,6.1-8.4c1.4-2.2,3.6-3.4,6.5-3.4c2.6,0,4.9,1.2,6.4,3.3c1.5,0,2.8,0.6,3.9,1.6
		c1.7,1.6,2.7,4.2,2.7,6.9C1352.9,94.2,1348.8,98.2,1343.8,98.2z"/>
</g>
<g>
	<path class="st12" d="M85.9,91.5c-0.6,0-1-0.4-1-1V75h-1.2c-0.6,0-1-0.4-1-1s0.4-1,1-1h1.2v-2.1c0-0.6,0.4-1,1-1s1,0.4,1,1v7l1.4,0
		c0.6,0,1,0.5,1,1c0,0.5-0.5,1-1,1c0,0,0,0,0,0l-1.4,0v10.6C86.9,91.1,86.4,91.5,85.9,91.5z M89.7,83.6c-0.6,0-1-0.4-1-1s0.4-1,1-1
		c3.8,0,7.1-3.2,7.1-6.7c0-2.1-0.8-4.2-2.1-5.4c-0.8-0.8-1.8-1.1-3-1.1c-0.4,0-0.7-0.2-0.9-0.5c-1.1-1.8-3-2.8-5-2.8
		c-2.4,0-4,0.9-5,2.8c-0.2,0.3-0.4,0.5-0.8,0.5c-3.4,0.4-4.9,3.6-4.9,6.5c0,3.7,3,6.7,6.7,6.7c0.6,0,1,0.4,1,1s-0.4,1-1,1
		c-4.8,0-8.7-3.9-8.7-8.7c0-4.3,2.5-7.7,6.1-8.4c1.4-2.2,3.6-3.4,6.5-3.4c2.6,0,4.9,1.2,6.4,3.3c1.5,0,2.8,0.6,3.9,1.6
		c1.7,1.6,2.7,4.2,2.7,6.9C98.9,79.6,94.7,83.6,89.7,83.6z"/>
</g>
<g>
	<path class="st12" d="M149.2,145.5c-0.6,0-1-0.4-1-1V129H147c-0.6,0-1-0.4-1-1s0.4-1,1-1h1.2v-2.1c0-0.6,0.4-1,1-1s1,0.4,1,1v7
		l1.4,0c0.6,0,1,0.5,1,1c0,0.5-0.5,1-1,1c0,0,0,0,0,0l-1.4,0v10.6C150.2,145.1,149.8,145.5,149.2,145.5z M153.1,137.6
		c-0.6,0-1-0.4-1-1s0.4-1,1-1c3.8,0,7.1-3.2,7.1-6.7c0-2.1-0.8-4.2-2.1-5.4c-0.8-0.8-1.8-1.1-3-1.1c-0.4,0-0.7-0.2-0.9-0.5
		c-1.1-1.8-3-2.8-5-2.8c-2.4,0-4,0.9-5,2.8c-0.2,0.3-0.4,0.5-0.8,0.5c-3.4,0.4-4.9,3.6-4.9,6.5c0,3.7,3,6.7,6.7,6.7c0.6,0,1,0.4,1,1
		s-0.4,1-1,1c-4.8,0-8.7-3.9-8.7-8.7c0-4.3,2.5-7.7,6.1-8.4c1.4-2.2,3.6-3.4,6.5-3.4c2.6,0,4.9,1.2,6.4,3.3c1.5,0,2.8,0.6,3.9,1.6
		c1.7,1.6,2.7,4.2,2.7,6.9C162.3,133.6,158.1,137.6,153.1,137.6z"/>
</g>
<g>
	<path class="st12" d="M317.1,34.9c-0.6,0-1-0.4-1-1V18.3h-1.2c-0.6,0-1-0.4-1-1s0.4-1,1-1h1.2v-2.1c0-0.6,0.4-1,1-1s1,0.4,1,1v7
		l1.4,0c0.6,0,1,0.5,1,1c0,0.5-0.5,1-1,1c0,0,0,0,0,0l-1.4,0v10.6C318.1,34.4,317.7,34.9,317.1,34.9z M321,27c-0.6,0-1-0.4-1-1
		s0.4-1,1-1c3.8,0,7.1-3.2,7.1-6.7c0-2.1-0.8-4.2-2.1-5.4c-0.8-0.8-1.8-1.1-3-1.1c-0.4,0-0.7-0.2-0.9-0.5c-1.1-1.8-3-2.8-5-2.8
		c-2.4,0-4,0.9-5,2.8c-0.2,0.3-0.4,0.5-0.8,0.5c-3.4,0.4-4.9,3.6-4.9,6.5c0,3.7,3,6.7,6.7,6.7c0.6,0,1,0.4,1,1s-0.4,1-1,1
		c-4.8,0-8.7-3.9-8.7-8.7c0-4.3,2.5-7.7,6.1-8.4c1.4-2.2,3.6-3.4,6.5-3.4c2.6,0,4.9,1.2,6.4,3.3c1.5,0,2.8,0.6,3.9,1.6
		c1.7,1.6,2.7,4.2,2.7,6.9C330.1,23,325.9,27,321,27z"/>
</g>
<g>
	<path class="st12" d="M300.9,184.4c-0.6,0-1-0.4-1-1v-15.6h-1.2c-0.6,0-1-0.4-1-1s0.4-1,1-1h1.2v-2.1c0-0.6,0.4-1,1-1s1,0.4,1,1v7
		l1.4,0c0.6,0,1,0.5,1,1c0,0.5-0.5,1-1,1c0,0,0,0,0,0l-1.4,0v10.6C301.9,184,301.4,184.4,300.9,184.4z M304.7,176.5
		c-0.6,0-1-0.4-1-1s0.4-1,1-1c3.8,0,7.1-3.2,7.1-6.7c0-2.1-0.8-4.2-2.1-5.4c-0.8-0.8-1.8-1.1-3-1.1c-0.4,0-0.7-0.2-0.9-0.5
		c-1.1-1.8-3-2.8-5-2.8c-2.4,0-4,0.9-5,2.8c-0.2,0.3-0.4,0.5-0.8,0.5c-3.4,0.4-4.9,3.6-4.9,6.5c0,3.7,3,6.7,6.7,6.7c0.6,0,1,0.4,1,1
		s-0.4,1-1,1c-4.8,0-8.7-3.9-8.7-8.7c0-4.3,2.5-7.7,6.1-8.4c1.4-2.2,3.6-3.4,6.5-3.4c2.6,0,4.9,1.2,6.4,3.3c1.5,0,2.8,0.6,3.9,1.6
		c1.7,1.6,2.7,4.2,2.7,6.9C313.9,172.5,309.7,176.5,304.7,176.5z"/>
</g>
<g>
	<path class="st12" d="M53,135.1c-0.6,0-1-0.4-1-1v-2.7h-7c-0.3,0-0.7-0.2-0.9-0.5s-0.2-0.7,0-1l3.3-6.5H47c-0.3,0-0.7-0.2-0.9-0.5
		s-0.2-0.7,0-1l3.3-6.5H49c-0.4,0-0.7-0.2-0.9-0.5c-0.2-0.3-0.2-0.7,0-1l4-6.8c0.4-0.6,1.4-0.6,1.7,0l4,6.8c0.2,0.3,0.2,0.7,0,1
		c-0.2,0.3-0.5,0.5-0.9,0.5h-0.4l3.3,6.5c0.2,0.3,0.1,0.7,0,1s-0.5,0.5-0.9,0.5h-0.4l3.3,6.5c0.2,0.3,0.1,0.7,0,1
		c-0.2,0.3-0.5,0.5-0.9,0.5h-7v2.7C54,134.6,53.5,135.1,53,135.1z M46.6,129.4h12.7l-3.3-6.5c-0.2-0.3-0.1-0.7,0-1
		c0.2-0.3,0.5-0.5,0.9-0.5h0.4l-3.3-6.5c-0.2-0.3-0.1-0.7,0-1s0.5-0.5,0.9-0.5h0.2l-2.2-3.8l-2.2,3.8H51c0,0,0,0,0,0h0.8
		c0.6,0,1,0.4,1,1s-0.4,1-1,1h-0.2l-3,6H49c0,0,0,0,0,0h2.8c0.6,0,1,0.4,1,1s-0.4,1-1,1h-2.2L46.6,129.4z"/>
</g>
<g>
	<path class="st12" d="M168.5,75.1c-0.6,0-1-0.4-1-1v-2.7h-7c-0.3,0-0.7-0.2-0.9-0.5s-0.2-0.7,0-1l3.3-6.5h-0.4
		c-0.3,0-0.7-0.2-0.9-0.5s-0.2-0.7,0-1l3.3-6.5h-0.4c-0.4,0-0.7-0.2-0.9-0.5c-0.2-0.3-0.2-0.7,0-1l4-6.8c0.4-0.6,1.4-0.6,1.7,0
		l4,6.8c0.2,0.3,0.2,0.7,0,1c-0.2,0.3-0.5,0.5-0.9,0.5h-0.4l3.3,6.5c0.2,0.3,0.1,0.7,0,1s-0.5,0.5-0.9,0.5h-0.4l3.3,6.5
		c0.2,0.3,0.1,0.7,0,1c-0.2,0.3-0.5,0.5-0.9,0.5h-7v2.7C169.5,74.7,169,75.1,168.5,75.1z M162.1,69.5h12.7l-3.3-6.5
		c-0.2-0.3-0.1-0.7,0-1c0.2-0.3,0.5-0.5,0.9-0.5h0.4l-3.3-6.5c-0.2-0.3-0.1-0.7,0-1s0.5-0.5,0.9-0.5h0.2l-2.2-3.8l-2.2,3.8h0.2
		c0,0,0,0,0,0h0.8c0.6,0,1,0.4,1,1s-0.4,1-1,1h-0.2l-3,6h0.4c0,0,0,0,0,0h2.8c0.6,0,1,0.4,1,1s-0.4,1-1,1h-2.2L162.1,69.5z"/>
</g>
<g>
	<path class="st12" d="M182.2,80.7c-0.6,0-1-0.4-1-1V77h-7c-0.3,0-0.7-0.2-0.9-0.5s-0.2-0.7,0-1l3.3-6.5h-0.4
		c-0.3,0-0.7-0.2-0.9-0.5s-0.2-0.7,0-1l3.3-6.5h-0.4c-0.4,0-0.7-0.2-0.9-0.5c-0.2-0.3-0.2-0.7,0-1l4-6.8c0.4-0.6,1.4-0.6,1.7,0
		l4,6.8c0.2,0.3,0.2,0.7,0,1c-0.2,0.3-0.5,0.5-0.9,0.5h-0.4l3.3,6.5c0.2,0.3,0.1,0.7,0,1s-0.5,0.5-0.9,0.5h-0.4l3.3,6.5
		c0.2,0.3,0.1,0.7,0,1c-0.2,0.3-0.5,0.5-0.9,0.5h-7v2.7C183.2,80.2,182.8,80.7,182.2,80.7z M175.9,75h12.7l-3.3-6.5
		c-0.2-0.3-0.1-0.7,0-1c0.2-0.3,0.5-0.5,0.9-0.5h0.4l-3.3-6.5c-0.2-0.3-0.1-0.7,0-1s0.5-0.5,0.9-0.5h0.2l-2.2-3.8l-2.2,3.8h0.2
		c0,0,0,0,0,0h0.8c0.6,0,1,0.4,1,1s-0.4,1-1,1h-0.2l-3,6h0.4c0,0,0,0,0,0h2.8c0.6,0,1,0.4,1,1s-0.4,1-1,1h-2.2L175.9,75z"/>
</g>
<g>
	<path class="st12" d="M252.5,133.7c-0.6,0-1-0.4-1-1v-2.7h-7c-0.3,0-0.7-0.2-0.9-0.5s-0.2-0.7,0-1l3.3-6.5h-0.4
		c-0.3,0-0.7-0.2-0.9-0.5s-0.2-0.7,0-1l3.3-6.5h-0.4c-0.4,0-0.7-0.2-0.9-0.5c-0.2-0.3-0.2-0.7,0-1l4-6.8c0.4-0.6,1.4-0.6,1.7,0
		l4,6.8c0.2,0.3,0.2,0.7,0,1c-0.2,0.3-0.5,0.5-0.9,0.5h-0.4l3.3,6.5c0.2,0.3,0.1,0.7,0,1s-0.5,0.5-0.9,0.5h-0.4l3.3,6.5
		c0.2,0.3,0.1,0.7,0,1c-0.2,0.3-0.5,0.5-0.9,0.5h-7v2.7C253.5,133.3,253.1,133.7,252.5,133.7z M246.1,128.1h12.7l-3.3-6.5
		c-0.2-0.3-0.1-0.7,0-1c0.2-0.3,0.5-0.5,0.9-0.5h0.4l-3.3-6.5c-0.2-0.3-0.1-0.7,0-1s0.5-0.5,0.9-0.5h0.2l-2.2-3.8l-2.2,3.8h0.2
		c0,0,0,0,0,0h0.8c0.6,0,1,0.4,1,1s-0.4,1-1,1h-0.2l-3,6h0.4c0,0,0,0,0,0h2.8c0.6,0,1,0.4,1,1s-0.4,1-1,1h-2.2L246.1,128.1z"/>
</g>
<g>
	<path class="st12" d="M1405.5,85.8c-0.6,0-1-0.4-1-1v-2.7h-7c-0.3,0-0.7-0.2-0.9-0.5s-0.2-0.7,0-1l3.3-6.5h-0.4
		c-0.3,0-0.7-0.2-0.9-0.5s-0.2-0.7,0-1l3.3-6.5h-0.4c-0.4,0-0.7-0.2-0.9-0.5c-0.2-0.3-0.2-0.7,0-1l4-6.8c0.4-0.6,1.4-0.6,1.7,0
		l4,6.8c0.2,0.3,0.2,0.7,0,1c-0.2,0.3-0.5,0.5-0.9,0.5h-0.4l3.3,6.5c0.2,0.3,0.1,0.7,0,1s-0.5,0.5-0.9,0.5h-0.4l3.3,6.5
		c0.2,0.3,0.1,0.7,0,1c-0.2,0.3-0.5,0.5-0.9,0.5h-7v2.7C1406.5,85.3,1406,85.8,1405.5,85.8z M1399.1,80.1h12.7l-3.3-6.5
		c-0.2-0.3-0.1-0.7,0-1c0.2-0.3,0.5-0.5,0.9-0.5h0.4l-3.3-6.5c-0.2-0.3-0.1-0.7,0-1s0.5-0.5,0.9-0.5h0.2l-2.2-3.8l-2.2,3.8h0.2
		c0,0,0,0,0,0h0.8c0.6,0,1,0.4,1,1s-0.4,1-1,1h-0.2l-3,6h0.4c0,0,0,0,0,0h2.8c0.6,0,1,0.4,1,1s-0.4,1-1,1h-2.2L1399.1,80.1z"/>
</g>
<g>
	<path class="st12" d="M1536.5,167.3c-0.6,0-1-0.4-1-1v-2.7h-7c-0.3,0-0.7-0.2-0.9-0.5s-0.2-0.7,0-1l3.3-6.5h-0.4
		c-0.3,0-0.7-0.2-0.9-0.5s-0.2-0.7,0-1l3.3-6.5h-0.4c-0.4,0-0.7-0.2-0.9-0.5c-0.2-0.3-0.2-0.7,0-1l4-6.8c0.4-0.6,1.4-0.6,1.7,0
		l4,6.8c0.2,0.3,0.2,0.7,0,1c-0.2,0.3-0.5,0.5-0.9,0.5h-0.4l3.3,6.5c0.2,0.3,0.1,0.7,0,1s-0.5,0.5-0.9,0.5h-0.4l3.3,6.5
		c0.2,0.3,0.1,0.7,0,1c-0.2,0.3-0.5,0.5-0.9,0.5h-7v2.7C1537.5,166.9,1537,167.3,1536.5,167.3z M1530.1,161.7h12.7l-3.3-6.5
		c-0.2-0.3-0.1-0.7,0-1c0.2-0.3,0.5-0.5,0.9-0.5h0.4l-3.3-6.5c-0.2-0.3-0.1-0.7,0-1s0.5-0.5,0.9-0.5h0.2l-2.2-3.8l-2.2,3.8h0.2
		c0,0,0,0,0,0h0.8c0.6,0,1,0.4,1,1s-0.4,1-1,1h-0.2l-3,6h0.4c0,0,0,0,0,0h2.8c0.6,0,1,0.4,1,1s-0.4,1-1,1h-2.2L1530.1,161.7z"/>
</g>
<g>
	<path class="st12" d="M1390.1,177c-0.6,0-1-0.4-1-1v-2.7h-7c-0.3,0-0.7-0.2-0.9-0.5s-0.2-0.7,0-1l3.3-6.5h-0.4
		c-0.3,0-0.7-0.2-0.9-0.5s-0.2-0.7,0-1l3.3-6.5h-0.4c-0.4,0-0.7-0.2-0.9-0.5c-0.2-0.3-0.2-0.7,0-1l4-6.8c0.4-0.6,1.4-0.6,1.7,0
		l4,6.8c0.2,0.3,0.2,0.7,0,1c-0.2,0.3-0.5,0.5-0.9,0.5h-0.4l3.3,6.5c0.2,0.3,0.1,0.7,0,1s-0.5,0.5-0.9,0.5h-0.4l3.3,6.5
		c0.2,0.3,0.1,0.7,0,1c-0.2,0.3-0.5,0.5-0.9,0.5h-7v2.7C1391.1,176.5,1390.7,177,1390.1,177z M1383.7,171.3h12.7l-3.3-6.5
		c-0.2-0.3-0.1-0.7,0-1c0.2-0.3,0.5-0.5,0.9-0.5h0.4l-3.3-6.5c-0.2-0.3-0.1-0.7,0-1s0.5-0.5,0.9-0.5h0.2l-2.2-3.8l-2.2,3.8h0.2
		c0,0,0,0,0,0h0.8c0.6,0,1,0.4,1,1s-0.4,1-1,1h-0.2l-3,6h0.4c0,0,0,0,0,0h2.8c0.6,0,1,0.4,1,1s-0.4,1-1,1h-2.2L1383.7,171.3z"/>
</g>
<g>
	<path class="st12" d="M1307.4,213.9c-0.6,0-1-0.4-1-1v-2.7h-7c-0.3,0-0.7-0.2-0.9-0.5s-0.2-0.7,0-1l3.3-6.5h-0.4
		c-0.3,0-0.7-0.2-0.9-0.5s-0.2-0.7,0-1l3.3-6.5h-0.4c-0.4,0-0.7-0.2-0.9-0.5c-0.2-0.3-0.2-0.7,0-1l4-6.8c0.4-0.6,1.4-0.6,1.7,0
		l4,6.8c0.2,0.3,0.2,0.7,0,1c-0.2,0.3-0.5,0.5-0.9,0.5h-0.4l3.3,6.5c0.2,0.3,0.1,0.7,0,1s-0.5,0.5-0.9,0.5h-0.4l3.3,6.5
		c0.2,0.3,0.1,0.7,0,1c-0.2,0.3-0.5,0.5-0.9,0.5h-7v2.7C1308.4,213.4,1307.9,213.9,1307.4,213.9z M1301,208.2h12.7l-3.3-6.5
		c-0.2-0.3-0.1-0.7,0-1c0.2-0.3,0.5-0.5,0.9-0.5h0.4l-3.3-6.5c-0.2-0.3-0.1-0.7,0-1s0.5-0.5,0.9-0.5h0.2l-2.2-3.8l-2.2,3.8h0.2
		c0,0,0,0,0,0h0.8c0.6,0,1,0.4,1,1s-0.4,1-1,1h-0.2l-3,6h0.4c0,0,0,0,0,0h2.8c0.6,0,1,0.4,1,1s-0.4,1-1,1h-2.2L1301,208.2z"/>
</g>
</svg>
