<svg id="Layer_1" xmlns="http://www.w3.org/2000/svg" viewBox="0 0 1769.7 223.4"><style>.st0{fill:none;stroke:#f7f7f9;stroke-width:12;stroke-linecap:round;stroke-linejoin:round;stroke-miterlimit:10}.st1{fill:#f7f7f9}.st2{fill:#fff}.st3{opacity:.5;fill:#b5b5b5}.st4{font-family:&amp;apos;ProbaPro-Medium&amp;apos;}.st5{font-size:12px}.st6{fill:#d6d6d6}.st7{opacity:.5}.st8{fill:#b5b5b5}.st9{font-family:&amp;apos;MuseoSansCyrl-900&amp;apos;}.st10{font-size:10px}.st11{letter-spacing:1}.st12{fill:#eaeaea}</style><path class="st0" d="M18.8 194.8l20.8-9.3c3-1.3 6.2-2 9.4-2h14.8c.6 0 1.2 0 1.8.1l26.8 2.3 10.5.5c2.7.1 5.4.6 8 1.5l7.8 2.7 12.5 4.2c3 1 6.1 1.3 9.3 1l6.7-.8c1.9-.2 3.8-.7 5.7-1.4l16.3-6.3c1.6-.6 3.2-1.1 4.8-1.5l13.5-3.5c1.4-.4 2.8-.7 4.2-.9l33.7-5.7c2.3-.4 4.5-1.4 6.3-2.8l43.6-35.1c.9-.7 1.8-1.3 2.8-1.8l5-2.6c3-1.5 6.3-2 9.6-1.3l7.8 1.6c3.4.7 6.9.9 10.4.7l21.2-1.4c2.3-.2 4.7-.2 7-.2h15.6c3.8 0 7.7-.8 11.2-2.4 3.3-1.5 6.3-3.6 8.7-6.3l13.7-15.2c3.3-3.6 6.8-6.9 10.7-9.9l17.3-13.3c3.1-2.4 6.6-4 10.3-4.9l4.9-1.2c4-1 8.1-1.2 12.2-.6l11.3 1.6c4.1.6 8.2 1.5 12.2 2.7l12.5 3.9c7.6 2.4 15.6 3.1 23.6 2.3l19.3-2.1c5.6-.6 11.2-.7 16.7-.3l37.2 2.6c1.4.1 2.8.1 4.2.1l15.7-.2c5-.1 10 .4 14.9 1.3l49.9 9.7c5.2 1 10.3 2.3 15.3 3.9l73.2 23.7c3.9 1.3 7.8 2.9 11.5 4.7l22.6 11.5c8.8 4.4 18.1 7.6 27.7 9.5l21.8 4.2c3.5.7 7.1 1.1 10.7 1.3l17.2.9c6 .3 12 0 18-1l42.4-6.9 46.3-7.8c6.2-1 12.6-1.6 18.9-1.6h17.2c7 0 14.1.9 20.9 2.6l11 2.8c5.8 1.5 11.5 3.4 17 5.8l22.8 9.8c5.5 2.4 11.4 3.8 17.3 4.1l1.9.1c4.7.3 9.4-.4 13.8-1.9l9.2-3.2c8-2.8 15.6-6.6 22.6-11.5l27.5-19.3 57.8-36.6c3.9-2.5 7.9-4.7 12.1-6.7l23.2-11.1c2.1-1 4.3-2.1 6.3-3.3l4.8-2.8c7.4-4.3 15.2-7.7 23.3-10.3l5-1.6c3.9-1.2 7.8-2.3 11.7-3.1l21.6-4.6c4.7-1 9.3-2.6 13.6-4.9l7.6-4c3.3-1.7 6.3-3.9 8.9-6.6l9.1-9.1c.9-.9 1.7-1.8 2.4-2.8l10.4-14.3c1.8-2.4 4.6-3.8 7.5-3.8h.1c2.1 0 4.2.4 6.1 1.1 1.4.5 3.2 1.2 4.9 1.8 3.8 1.4 7.5 3.3 10.8 5.7l2.3 1.7c3.1 2.3 6 4.9 8.5 7.8l6.1 7c2.3 2.6 5.2 4.5 8.5 5.4l17.8 4.9c1 .3 1.9.6 2.9 1l9.4 3.8c3.3 1.3 6.5 2.8 9.6 4.4l10.2 5.4c3.2 1.7 6.5 2.9 10 3.8 4.9 1.2 10 1.8 15 1.8l9.6.1c5.8.1 11.4 1.3 16.7 3.5l.2.1c3.6 1.5 6.9 3.3 10.1 5.5 9.3 6.2 28.9 19.4 28.9 19.4 5.7 5.5 12.7 9.2 20.4 11l14.9 3.4 39.9 11.3c8.7 2.5 17.7 3.6 26.7 3.4l23.8-.6c1.5 0 3 0 4.4.1l7.3.5c2.9.2 5.8.8 8.6 1.8l.2.1c5.6 2 10.5 5.4 14.4 9.9 1.8 2.1 3.4 3.9 3.4 3.9"/><path class="st1" d="M92.6 199.3c-6.9 0-12.5-5.6-12.5-12.5s5.6-12.5 12.5-12.5 12.5 5.6 12.5 12.5-5.6 12.5-12.5 12.5z"/><path class="st2" d="M92.6 175.8c6.1 0 11 4.9 11 11s-4.9 11-11 11-11-4.9-11-11 4.9-11 11-11m0-3c-7.7 0-14 6.3-14 14s6.3 14 14 14 14-6.3 14-14-6.3-14-14-14z"/><text transform="translate(89.512 190.375)" class="st3 st4 st5">1</text><path class="st1" d="M173.3 198.3c-6.9 0-12.5-5.6-12.5-12.5s5.6-12.5 12.5-12.5 12.5 5.6 12.5 12.5-5.7 12.5-12.5 12.5z"/><path class="st2" d="M173.3 174.8c6.1 0 11 4.9 11 11s-4.9 11-11 11-11-4.9-11-11 4.9-11 11-11m0-3c-7.7 0-14 6.3-14 14s6.3 14 14 14 14-6.3 14-14-6.3-14-14-14z"/><text transform="translate(170.178 189.375)" class="st3 st4 st5">2</text><path class="st1" d="M248.3 172.3c-6.9 0-12.5-5.6-12.5-12.5s5.6-12.5 12.5-12.5 12.5 5.6 12.5 12.5-5.7 12.5-12.5 12.5z"/><path class="st2" d="M248.3 148.8c6.1 0 11 4.9 11 11s-4.9 11-11 11-11-4.9-11-11 4.9-11 11-11m0-3c-7.7 0-14 6.3-14 14s6.3 14 14 14 14-6.3 14-14-6.3-14-14-14z"/><text transform="translate(245.178 163.375)" class="st3 st4 st5">3</text><path class="st1" d="M337.4 147.8c-6.9 0-12.5-5.6-12.5-12.5s5.6-12.5 12.5-12.5 12.5 5.6 12.5 12.5-5.7 12.5-12.5 12.5z"/><path class="st2" d="M337.4 124.3c6.1 0 11 4.9 11 11s-4.9 11-11 11-11-4.9-11-11 4.9-11 11-11m0-3c-7.7 0-14 6.3-14 14s6.3 14 14 14 14-6.3 14-14-6.3-14-14-14z"/><text transform="translate(334.275 138.886)" class="st3 st4 st5">4</text><path class="st1" d="M409.7 100.8c-6.9 0-12.5-5.6-12.5-12.5s5.6-12.5 12.5-12.5 12.5 5.6 12.5 12.5-5.6 12.5-12.5 12.5z"/><path class="st2" d="M409.7 77.3c6.1 0 11 4.9 11 11s-4.9 11-11 11-11-4.9-11-11 4.9-11 11-11m0-3c-7.7 0-14 6.3-14 14s6.3 14 14 14 14-6.3 14-14-6.3-14-14-14z"/><text transform="translate(406.608 91.886)" class="st3 st4 st5">5</text><path class="st1" d="M489 101.8c-6.9 0-12.5-5.6-12.5-12.5s5.6-12.5 12.5-12.5 12.5 5.6 12.5 12.5-5.6 12.5-12.5 12.5z"/><path class="st2" d="M489 78.3c6.1 0 11 4.9 11 11s-4.9 11-11 11-11-4.9-11-11 4.9-11 11-11m0-3c-7.7 0-14 6.3-14 14s6.3 14 14 14 14-6.3 14-14-6.3-14-14-14z"/><text transform="translate(485.942 92.886)" class="st3 st4 st5">6</text><path class="st1" d="M578 101.8c-6.9 0-12.5-5.6-12.5-12.5s5.6-12.5 12.5-12.5 12.5 5.6 12.5 12.5-5.6 12.5-12.5 12.5z"/><path class="st2" d="M578 78.3c6.1 0 11 4.9 11 11s-4.9 11-11 11-11-4.9-11-11 4.9-11 11-11m0-3c-7.7 0-14 6.3-14 14s6.3 14 14 14 14-6.3 14-14-6.3-14-14-14z"/><text transform="matrix(1.0184 0 0 1 574.943 92.886)" class="st3 st4 st5">7</text><path class="st1" d="M668 113.6c-6.9 0-12.5-5.6-12.5-12.5s5.6-12.5 12.5-12.5 12.5 5.6 12.5 12.5-5.6 12.5-12.5 12.5z"/><path class="st2" d="M668 90.1c6.1 0 11 4.9 11 11s-4.9 11-11 11-11-4.9-11-11 4.9-11 11-11m0-3c-7.7 0-14 6.3-14 14s6.3 14 14 14 14-6.3 14-14-6.3-14-14-14z"/><text transform="translate(664.942 104.655)" class="st3 st4 st5">8</text><path class="st1" d="M755.4 142.9c-6.9 0-12.5-5.6-12.5-12.5s5.6-12.5 12.5-12.5 12.5 5.6 12.5 12.5-5.7 12.5-12.5 12.5z"/><path class="st2" d="M755.4 119.4c6.1 0 11 4.9 11 11s-4.9 11-11 11-11-4.9-11-11c0-6 4.9-11 11-11m0-3c-7.7 0-14 6.3-14 14s6.3 14 14 14 14-6.3 14-14-6.3-14-14-14z"/><text transform="translate(752.275 133.988)" class="st3 st4 st5">9</text><path class="st1" d="M921 163.4c-6.9 0-12.5-5.6-12.5-12.5s5.6-12.5 12.5-12.5 12.5 5.6 12.5 12.5-5.6 12.5-12.5 12.5z"/><path class="st2" d="M921 139.9c6.1 0 11 4.9 11 11s-4.9 11-11 11-11-4.9-11-11 4.9-11 11-11m0-3c-7.7 0-14 6.3-14 14s6.3 14 14 14 14-6.3 14-14-6.3-14-14-14z"/><text transform="translate(914.864 154.439)" class="st3 st4 st5">11</text><path class="st1" d="M995.4 153.9c-6.9 0-12.5-5.6-12.5-12.5s5.6-12.5 12.5-12.5 12.5 5.6 12.5 12.5-5.7 12.5-12.5 12.5z"/><path class="st2" d="M995.4 130.4c6.1 0 11 4.9 11 11s-4.9 11-11 11-11-4.9-11-11 4.9-11 11-11m0-3c-7.7 0-14 6.3-14 14s6.3 14 14 14 14-6.3 14-14-6.3-14-14-14z"/><text transform="translate(989.197 144.988)" class="st3 st4 st5">12</text><path class="st1" d="M1082.6 180.9c-6.9 0-12.5-5.6-12.5-12.5s5.6-12.5 12.5-12.5 12.5 5.6 12.5 12.5-5.6 12.5-12.5 12.5z"/><path class="st2" d="M1082.6 157.4c6.1 0 11 4.9 11 11s-4.9 11-11 11-11-4.9-11-11c0-6 4.9-11 11-11m0-3c-7.7 0-14 6.3-14 14s6.3 14 14 14 14-6.3 14-14-6.3-14-14-14z"/><text transform="translate(1076.42 171.985)" class="st3 st4 st5">13</text><path class="st1" d="M1166.8 145.6c-6.9 0-12.5-5.6-12.5-12.5s5.6-12.5 12.5-12.5 12.5 5.6 12.5 12.5-5.7 12.5-12.5 12.5z"/><path class="st2" d="M1166.8 122.1c6.1 0 11 4.9 11 11s-4.9 11-11 11-11-4.9-11-11 4.9-11 11-11m0-3c-7.7 0-14 6.3-14 14s6.3 14 14 14 14-6.3 14-14-6.3-14-14-14z"/><text transform="translate(1160.6 136.652)" class="st3 st4 st5">14</text><path class="st1" d="M1230.8 104.4c-6.9 0-12.5-5.6-12.5-12.5s5.6-12.5 12.5-12.5 12.5 5.6 12.5 12.5-5.7 12.5-12.5 12.5z"/><path class="st2" d="M1230.8 80.9c6.1 0 11 4.9 11 11s-4.9 11-11 11-11-4.9-11-11 4.9-11 11-11m0-3c-7.7 0-14 6.3-14 14s6.3 14 14 14 14-6.3 14-14-6.3-14-14-14z"/><text transform="translate(1224.6 95.439)" class="st3 st4 st5">15</text><path class="st1" d="M1305.4 69.9c-6.9 0-12.5-5.6-12.5-12.5s5.6-12.5 12.5-12.5 12.5 5.6 12.5 12.5-5.6 12.5-12.5 12.5z"/><path class="st2" d="M1305.4 46.4c6.1 0 11 4.9 11 11s-4.9 11-11 11-11-4.9-11-11 4.9-11 11-11m0-3c-7.7 0-14 6.3-14 14s6.3 14 14 14 14-6.3 14-14-6.3-14-14-14z"/><text transform="translate(1299.203 60.946)" class="st3 st4 st5">16</text><path class="st1" d="M1372.7 38.9c-6.9 0-12.5-5.6-12.5-12.5s5.6-12.5 12.5-12.5 12.5 5.6 12.5 12.5-5.6 12.5-12.5 12.5z"/><path class="st2" d="M1372.7 15.4c6.1 0 11 4.9 11 11s-4.9 11-11 11-11-4.9-11-11 4.9-11 11-11m0-3c-7.7 0-14 6.3-14 14s6.3 14 14 14 14-6.3 14-14-6.3-14-14-14z"/><text transform="translate(1366.536 29.946)" class="st3 st4 st5">17</text><path class="st1" d="M1455.4 53.4c-6.9 0-12.5-5.6-12.5-12.5s5.6-12.5 12.5-12.5 12.5 5.6 12.5 12.5-5.6 12.5-12.5 12.5z"/><path class="st2" d="M1455.4 29.9c6.1 0 11 4.9 11 11s-4.9 11-11 11-11-4.9-11-11 4.9-11 11-11m0-3c-7.7 0-14 6.3-14 14s6.3 14 14 14 14-6.3 14-14-6.3-14-14-14z"/><text transform="translate(1449.203 44.498)" class="st3 st4 st5">18</text><path class="st1" d="M1532.2 75.4c-6.9 0-12.5-5.6-12.5-12.5s5.6-12.5 12.5-12.5 12.5 5.6 12.5 12.5-5.7 12.5-12.5 12.5z"/><path class="st2" d="M1532.2 51.9c6.1 0 11 4.9 11 11s-4.9 11-11 11-11-4.9-11-11 4.9-11 11-11m0-3c-7.7 0-14 6.3-14 14s6.3 14 14 14 14-6.3 14-14-6.3-14-14-14z"/><text transform="translate(1525.997 66.498)" class="st3 st4 st5">19</text><path class="st1" d="M1615.7 115.6c-6.9 0-12.5-5.6-12.5-12.5s5.6-12.5 12.5-12.5 12.5 5.6 12.5 12.5-5.6 12.5-12.5 12.5z"/><path class="st2" d="M1615.7 92.1c6.1 0 11 4.9 11 11s-4.9 11-11 11-11-4.9-11-11 4.9-11 11-11m0-3c-7.7 0-14 6.3-14 14s6.3 14 14 14 14-6.3 14-14-6.3-14-14-14z"/><text transform="translate(1609.536 106.692)" class="st3 st4 st5">20</text><path class="st1" d="M1687 131.6c-6.9 0-12.5-5.6-12.5-12.5s5.6-12.5 12.5-12.5 12.5 5.6 12.5 12.5-5.6 12.5-12.5 12.5z"/><path class="st2" d="M1687 108.1c6.1 0 11 4.9 11 11s-4.9 11-11 11-11-4.9-11-11 5-11 11-11m0-3c-7.7 0-14 6.3-14 14s6.3 14 14 14 14-6.3 14-14-6.3-14-14-14z"/><text transform="translate(1680.87 122.692)" class="st3 st4 st5">21</text><path class="st1" d="M839.2 171.7c-6.9 0-12.5-5.6-12.5-12.5s5.6-12.5 12.5-12.5 12.5 5.6 12.5 12.5-5.7 12.5-12.5 12.5z"/><path class="st2" d="M839.2 148.2c6.1 0 11 4.9 11 11s-4.9 11-11 11-11-4.9-11-11 4.9-11 11-11m0-3c-7.7 0-14 6.3-14 14s6.3 14 14 14 14-6.3 14-14-6.3-14-14-14z"/><text transform="translate(832.996 162.775)" class="st3 st4 st5">10</text><path class="st1" d="M1751 154.6c-6.9 0-12.5-5.6-12.5-12.5s5.6-12.5 12.5-12.5 12.5 5.6 12.5 12.5-5.6 12.5-12.5 12.5z"/><path class="st2" d="M1751 131.1c6.1 0 11 4.9 11 11s-4.9 11-11 11-11-4.9-11-11 5-11 11-11m0-3c-7.7 0-14 6.3-14 14s6.3 14 14 14 14-6.3 14-14-6.3-14-14-14z"/><g><circle class="st2" cx="17.1" cy="194.1" r="8.7"/><path class="st6" d="M17.9 184.1v-1.7h2.4c.4 0 .8-.4.8-.8s-.4-.8-.8-.8h-8.1c-.4 0-.8.4-.8.8s.4.8.8.8h2.4v1.7c-5.5.8-9.7 5.5-9.7 11.2 0 6.3 5.1 11.3 11.3 11.3 6.2 0 11.3-5.1 11.3-11.3.1-5.7-4.1-10.4-9.6-11.2zm4 12.8h-6.5c-.4 0-.8-.4-.8-.8V188c0-.4.4-.8.8-.8s.8.4.8.8v7.3h5.7c.4 0 .8.4.8.8s-.3.8-.8.8z"/></g><g class="st7"><text transform="translate(-.653 223.39)" class="st8 st9 st10 st11">START</text></g><g class="st7"><text transform="translate(1734.553 170.226)" class="st8 st9 st10 st11">finish</text></g><g class="st7"><text transform="translate(907.655 178.433)" class="st8 st9 st10 st11">half</text></g><path class="st6" d="M1764.6 121.4l5-5.1c.3-.3.1-.6-.3-.7h-7.6v-.7c0-1.2-1-2.1-2.1-2.1h-7.3v-.7c.1-.4 0-.7-.5-1.2-.2-.2-.4-.3-.6-.3-.7-.1-1.3.5-1.3 1.2V141.9c0 .7.5 1.2 1.2 1.2s1.2-.5 1.2-1.2v-17.8h9.5l-3.6.9c-.5.2-.8.6-.8 1v.9h11.8c.3 0 .5-.4.3-.6l-4.9-4.9zM1736.7 22.9c0 .3-.3.6-.6.6s-.6-.3-.6-.6.3-.6.6-.6.6.2.6.6zm-26.3 1.8c.1.2.4.4.6.3 3.1-1.2 6.2.4 9.6 2.1 1.8.9 3.7 1.9 5.7 2.5.9.3 1.8.4 2.7.4 4.5 0 7.8-3.3 7.9-3.5.2-.2.2-.5 0-.7-.2-.2-.5-.2-.7 0-.1.1-4.3 4.4-9.6 2.8-1.9-.6-3.7-1.5-5.5-2.4-3.6-1.8-6.9-3.5-10.4-2.1-.2.1-.4.4-.3.6zm27-3.3c.1.1.2.2.4.3 0 0 .9.2 1.5.8.1.1.2.1.3.1.1 0 .2 0 .3-.1.2-.2.2-.5 0-.7-.6-.6-1.3-.9-1.7-1-.9-1.7-2.8-1.9-4.5-1.7.2-1.1-.4-2.5-1.2-3.3l-.1-.1c-1.6-1.6-3.9-4.1-4.2-5.5 0-.2-.2-.3-.3-.4-.2-.1-.4 0-.5.1 0 0-2.4 2.4-.5 5.9.1.2.4.3.7.2.2-.1.3-.4.2-.7-1-1.8-.6-3.3-.2-4.1.8 1.6 2.7 3.5 4.1 5l.1.1c.7.8 1.1 2.1.8 2.8-1 .2-1.8.5-2.1.6-.3-.2-.6-.5-1-.7-.5-.3-1-.5-1.5-.8-3.1-1.7-7-3.8-8.1-6.1-.1-.2-.2-.3-.4-.3s-.3.1-.4.2c0 0-1.6 2.2-1 5-.1.1-2.3 3.2.9 6.3.1.1.2.1.3.1.1 0 .2 0 .3-.1.2-.2.2-.5 0-.7-1.8-1.8-1.5-3.5-1.1-4.4.4.8.9 1.6 1.8 2.4.2.2.5.2.7 0 .2-.2.2-.5 0-.7-2.9-2.9-2.1-5.6-1.5-6.8 1.6 2.2 5.2 4.2 8.1 5.8.5.3 1 .6 1.5.8 1.8 1 3 3.1 2.4 4.3-.1.2 0 .5.2.6h.2c.2 0 .4-.1.4-.3.6-1.2.1-2.8-1.1-4.1 1.5-.1 5.2-1 6.2 1.2z"/><g><path class="st12" d="M1469.5 213.9c-.6 0-1-.4-1-1v-15.6h-1.2c-.6 0-1-.4-1-1s.4-1 1-1h1.2v-2.1c0-.6.4-1 1-1s1 .4 1 1v7h1.4c.6 0 1 .5 1 1s-.5 1-1 1h-1.4v10.6c0 .6-.5 1.1-1 1.1zm3.8-7.9c-.6 0-1-.4-1-1s.4-1 1-1c3.8 0 7.1-3.2 7.1-6.7 0-2.1-.8-4.2-2.1-5.4-.8-.8-1.8-1.1-3-1.1-.4 0-.7-.2-.9-.5-1.1-1.8-3-2.8-5-2.8-2.4 0-4 .9-5 2.8-.2.3-.4.5-.8.5-3.4.4-4.9 3.6-4.9 6.5 0 3.7 3 6.7 6.7 6.7.6 0 1 .4 1 1s-.4 1-1 1c-4.8 0-8.7-3.9-8.7-8.7 0-4.3 2.5-7.7 6.1-8.4 1.4-2.2 3.6-3.4 6.5-3.4 2.6 0 4.9 1.2 6.4 3.3 1.5 0 2.8.6 3.9 1.6 1.7 1.6 2.7 4.2 2.7 6.9.2 4.7-4 8.7-9 8.7z"/></g><g><path class="st12" d="M1642.8 66.2c-.6 0-1-.4-1-1V49.6h-1.2c-.6 0-1-.4-1-1s.4-1 1-1h1.2v-2.1c0-.6.4-1 1-1s1 .4 1 1v7h1.4c.6 0 1 .5 1 1s-.5 1-1 1h-1.4v10.6c0 .6-.5 1.1-1 1.1zm3.9-7.9c-.6 0-1-.4-1-1s.4-1 1-1c3.8 0 7.1-3.2 7.1-6.7 0-2.1-.8-4.2-2.1-5.4-.8-.8-1.8-1.1-3-1.1-.4 0-.7-.2-.9-.5-1.1-1.8-3-2.8-5-2.8-2.4 0-4 .9-5 2.8-.2.3-.4.5-.8.5-3.4.4-4.9 3.6-4.9 6.5 0 3.7 3 6.7 6.7 6.7.6 0 1 .4 1 1s-.4 1-1 1c-4.8 0-8.7-3.9-8.7-8.7 0-4.3 2.5-7.7 6.1-8.4 1.4-2.2 3.6-3.4 6.5-3.4 2.6 0 4.9 1.2 6.4 3.3 1.5 0 2.8.6 3.9 1.6 1.7 1.6 2.7 4.2 2.7 6.9.1 4.7-4.1 8.7-9 8.7z"/></g><g><path class="st12" d="M1551.8 165.8c-.6 0-1-.4-1-1v-15.6h-1.2c-.6 0-1-.4-1-1s.4-1 1-1h1.2v-2.1c0-.6.4-1 1-1s1 .4 1 1v7h1.4c.6 0 1 .5 1 1s-.5 1-1 1h-1.4v10.6c0 .7-.5 1.1-1 1.1zm3.9-7.9c-.6 0-1-.4-1-1s.4-1 1-1c3.8 0 7.1-3.2 7.1-6.7 0-2.1-.8-4.2-2.1-5.4-.8-.8-1.8-1.1-3-1.1-.4 0-.7-.2-.9-.5-1.1-1.8-3-2.8-5-2.8-2.4 0-4 .9-5 2.8-.2.3-.4.5-.8.5-3.4.4-4.9 3.6-4.9 6.5 0 3.7 3 6.7 6.7 6.7.6 0 1 .4 1 1s-.4 1-1 1c-4.8 0-8.7-3.9-8.7-8.7 0-4.3 2.5-7.7 6.1-8.4 1.4-2.2 3.6-3.4 6.5-3.4 2.6 0 4.9 1.2 6.4 3.3 1.5 0 2.8.6 3.9 1.6 1.7 1.6 2.7 4.2 2.7 6.9.1 4.7-4.1 8.7-9 8.7z"/></g><g><path class="st12" d="M1339.9 106.1c-.6 0-1-.4-1-1V89.5h-1.2c-.6 0-1-.4-1-1s.4-1 1-1h1.2v-2.1c0-.6.4-1 1-1s1 .4 1 1v7h1.4c.6 0 1 .5 1 1s-.5 1-1 1h-1.4V105c0 .6-.4 1.1-1 1.1zm3.9-7.9c-.6 0-1-.4-1-1s.4-1 1-1c3.8 0 7.1-3.2 7.1-6.7 0-2.1-.8-4.2-2.1-5.4-.8-.8-1.8-1.1-3-1.1-.4 0-.7-.2-.9-.5-1.1-1.8-3-2.8-5-2.8-2.4 0-4 .9-5 2.8-.2.3-.4.5-.8.5-3.4.4-4.9 3.6-4.9 6.5 0 3.7 3 6.7 6.7 6.7.6 0 1 .4 1 1s-.4 1-1 1c-4.8 0-8.7-3.9-8.7-8.7 0-4.3 2.5-7.7 6.1-8.4 1.4-2.2 3.6-3.4 6.5-3.4 2.6 0 4.9 1.2 6.4 3.3 1.5 0 2.8.6 3.9 1.6 1.7 1.6 2.7 4.2 2.7 6.9.1 4.7-4 8.7-9 8.7z"/></g><g><path class="st12" d="M85.9 91.5c-.6 0-1-.4-1-1V75h-1.2c-.6 0-1-.4-1-1s.4-1 1-1h1.2v-2.1c0-.6.4-1 1-1s1 .4 1 1v7h1.4c.6 0 1 .5 1 1s-.5 1-1 1h-1.4v10.6c0 .6-.5 1-1 1zm3.8-7.9c-.6 0-1-.4-1-1s.4-1 1-1c3.8 0 7.1-3.2 7.1-6.7 0-2.1-.8-4.2-2.1-5.4-.8-.8-1.8-1.1-3-1.1-.4 0-.7-.2-.9-.5-1.1-1.8-3-2.8-5-2.8-2.4 0-4 .9-5 2.8-.2.3-.4.5-.8.5-3.4.4-4.9 3.6-4.9 6.5 0 3.7 3 6.7 6.7 6.7.6 0 1 .4 1 1s-.4 1-1 1c-4.8 0-8.7-3.9-8.7-8.7 0-4.3 2.5-7.7 6.1-8.4 1.4-2.2 3.6-3.4 6.5-3.4 2.6 0 4.9 1.2 6.4 3.3 1.5 0 2.8.6 3.9 1.6 1.7 1.6 2.7 4.2 2.7 6.9.2 4.7-4 8.7-9 8.7z"/></g><g><path class="st12" d="M149.2 145.5c-.6 0-1-.4-1-1V129H147c-.6 0-1-.4-1-1s.4-1 1-1h1.2v-2.1c0-.6.4-1 1-1s1 .4 1 1v7h1.4c.6 0 1 .5 1 1s-.5 1-1 1h-1.4v10.6c0 .6-.4 1-1 1zm3.9-7.9c-.6 0-1-.4-1-1s.4-1 1-1c3.8 0 7.1-3.2 7.1-6.7 0-2.1-.8-4.2-2.1-5.4-.8-.8-1.8-1.1-3-1.1-.4 0-.7-.2-.9-.5-1.1-1.8-3-2.8-5-2.8-2.4 0-4 .9-5 2.8-.2.3-.4.5-.8.5-3.4.4-4.9 3.6-4.9 6.5 0 3.7 3 6.7 6.7 6.7.6 0 1 .4 1 1s-.4 1-1 1c-4.8 0-8.7-3.9-8.7-8.7 0-4.3 2.5-7.7 6.1-8.4 1.4-2.2 3.6-3.4 6.5-3.4 2.6 0 4.9 1.2 6.4 3.3 1.5 0 2.8.6 3.9 1.6 1.7 1.6 2.7 4.2 2.7 6.9.2 4.7-4 8.7-9 8.7z"/></g><g><path class="st12" d="M317.1 34.9c-.6 0-1-.4-1-1V18.3h-1.2c-.6 0-1-.4-1-1s.4-1 1-1h1.2v-2.1c0-.6.4-1 1-1s1 .4 1 1v7h1.4c.6 0 1 .5 1 1s-.5 1-1 1h-1.4v10.6c0 .6-.4 1.1-1 1.1zM321 27c-.6 0-1-.4-1-1s.4-1 1-1c3.8 0 7.1-3.2 7.1-6.7 0-2.1-.8-4.2-2.1-5.4-.8-.8-1.8-1.1-3-1.1-.4 0-.7-.2-.9-.5-1.1-1.8-3-2.8-5-2.8-2.4 0-4 .9-5 2.8-.2.3-.4.5-.8.5-3.4.4-4.9 3.6-4.9 6.5 0 3.7 3 6.7 6.7 6.7.6 0 1 .4 1 1s-.4 1-1 1c-4.8 0-8.7-3.9-8.7-8.7 0-4.3 2.5-7.7 6.1-8.4 1.4-2.2 3.6-3.4 6.5-3.4 2.6 0 4.9 1.2 6.4 3.3 1.5 0 2.8.6 3.9 1.6 1.7 1.6 2.7 4.2 2.7 6.9.1 4.7-4.1 8.7-9 8.7z"/></g><g><path class="st12" d="M300.9 184.4c-.6 0-1-.4-1-1v-15.6h-1.2c-.6 0-1-.4-1-1s.4-1 1-1h1.2v-2.1c0-.6.4-1 1-1s1 .4 1 1v7h1.4c.6 0 1 .5 1 1s-.5 1-1 1h-1.4v10.6c0 .7-.5 1.1-1 1.1zm3.8-7.9c-.6 0-1-.4-1-1s.4-1 1-1c3.8 0 7.1-3.2 7.1-6.7 0-2.1-.8-4.2-2.1-5.4-.8-.8-1.8-1.1-3-1.1-.4 0-.7-.2-.9-.5-1.1-1.8-3-2.8-5-2.8-2.4 0-4 .9-5 2.8-.2.3-.4.5-.8.5-3.4.4-4.9 3.6-4.9 6.5 0 3.7 3 6.7 6.7 6.7.6 0 1 .4 1 1s-.4 1-1 1c-4.8 0-8.7-3.9-8.7-8.7 0-4.3 2.5-7.7 6.1-8.4 1.4-2.2 3.6-3.4 6.5-3.4 2.6 0 4.9 1.2 6.4 3.3 1.5 0 2.8.6 3.9 1.6 1.7 1.6 2.7 4.2 2.7 6.9.2 4.7-4 8.7-9 8.7z"/></g><g><path class="st12" d="M53 135.1c-.6 0-1-.4-1-1v-2.7h-7c-.3 0-.7-.2-.9-.5s-.2-.7 0-1l3.3-6.5H47c-.3 0-.7-.2-.9-.5s-.2-.7 0-1l3.3-6.5H49c-.4 0-.7-.2-.9-.5-.2-.3-.2-.7 0-1l4-6.8c.4-.6 1.4-.6 1.7 0l4 6.8c.2.3.2.7 0 1-.2.3-.5.5-.9.5h-.4l3.3 6.5c.2.3.1.7 0 1s-.5.5-.9.5h-.4l3.3 6.5c.2.3.1.7 0 1-.2.3-.5.5-.9.5h-7v2.7c.1.5-.4 1-.9 1zm-6.4-5.7h12.7l-3.3-6.5c-.2-.3-.1-.7 0-1 .2-.3.5-.5.9-.5h.4l-3.3-6.5c-.2-.3-.1-.7 0-1s.5-.5.9-.5h.2l-2.2-3.8-2.2 3.8h1.1c.6 0 1 .4 1 1s-.4 1-1 1h-.2l-3 6H51.8c.6 0 1 .4 1 1s-.4 1-1 1h-2.2l-3 6z"/></g><g><path class="st12" d="M168.5 75.1c-.6 0-1-.4-1-1v-2.7h-7c-.3 0-.7-.2-.9-.5s-.2-.7 0-1l3.3-6.5h-.4c-.3 0-.7-.2-.9-.5s-.2-.7 0-1l3.3-6.5h-.4c-.4 0-.7-.2-.9-.5-.2-.3-.2-.7 0-1l4-6.8c.4-.6 1.4-.6 1.7 0l4 6.8c.2.3.2.7 0 1-.2.3-.5.5-.9.5h-.4l3.3 6.5c.2.3.1.7 0 1s-.5.5-.9.5h-.4l3.3 6.5c.2.3.1.7 0 1-.2.3-.5.5-.9.5h-7v2.7c.1.6-.4 1-.9 1zm-6.4-5.6h12.7l-3.3-6.5c-.2-.3-.1-.7 0-1 .2-.3.5-.5.9-.5h.4l-3.3-6.5c-.2-.3-.1-.7 0-1s.5-.5.9-.5h.2l-2.2-3.8-2.2 3.8h1c.6 0 1 .4 1 1s-.4 1-1 1h-.2l-3 6H167.2c.6 0 1 .4 1 1s-.4 1-1 1H165l-2.9 6z"/></g><g><path class="st12" d="M182.2 80.7c-.6 0-1-.4-1-1V77h-7c-.3 0-.7-.2-.9-.5s-.2-.7 0-1l3.3-6.5h-.4c-.3 0-.7-.2-.9-.5s-.2-.7 0-1l3.3-6.5h-.4c-.4 0-.7-.2-.9-.5-.2-.3-.2-.7 0-1l4-6.8c.4-.6 1.4-.6 1.7 0l4 6.8c.2.3.2.7 0 1-.2.3-.5.5-.9.5h-.4l3.3 6.5c.2.3.1.7 0 1s-.5.5-.9.5h-.4l3.3 6.5c.2.3.1.7 0 1-.2.3-.5.5-.9.5h-7v2.7c.1.5-.3 1-.9 1zm-6.3-5.7h12.7l-3.3-6.5c-.2-.3-.1-.7 0-1 .2-.3.5-.5.9-.5h.4l-3.3-6.5c-.2-.3-.1-.7 0-1s.5-.5.9-.5h.2l-2.2-3.8L180 59h1c.6 0 1 .4 1 1s-.4 1-1 1h-.2l-3 6H181c.6 0 1 .4 1 1s-.4 1-1 1h-2.2l-2.9 6z"/></g><g><path class="st12" d="M252.5 133.7c-.6 0-1-.4-1-1V130h-7c-.3 0-.7-.2-.9-.5s-.2-.7 0-1l3.3-6.5h-.4c-.3 0-.7-.2-.9-.5s-.2-.7 0-1l3.3-6.5h-.4c-.4 0-.7-.2-.9-.5-.2-.3-.2-.7 0-1l4-6.8c.4-.6 1.4-.6 1.7 0l4 6.8c.2.3.2.7 0 1-.2.3-.5.5-.9.5h-.4l3.3 6.5c.2.3.1.7 0 1s-.5.5-.9.5h-.4l3.3 6.5c.2.3.1.7 0 1-.2.3-.5.5-.9.5h-7v2.7c.1.6-.3 1-.9 1zm-6.4-5.6h12.7l-3.3-6.5c-.2-.3-.1-.7 0-1 .2-.3.5-.5.9-.5h.4l-3.3-6.5c-.2-.3-.1-.7 0-1s.5-.5.9-.5h.2l-2.2-3.8-2.2 3.8h1c.6 0 1 .4 1 1s-.4 1-1 1h-.2l-3 6H251.2c.6 0 1 .4 1 1s-.4 1-1 1H249l-2.9 6z"/></g><g><path class="st12" d="M1405.5 85.8c-.6 0-1-.4-1-1v-2.7h-7c-.3 0-.7-.2-.9-.5s-.2-.7 0-1l3.3-6.5h-.4c-.3 0-.7-.2-.9-.5s-.2-.7 0-1l3.3-6.5h-.4c-.4 0-.7-.2-.9-.5-.2-.3-.2-.7 0-1l4-6.8c.4-.6 1.4-.6 1.7 0l4 6.8c.2.3.2.7 0 1-.2.3-.5.5-.9.5h-.4l3.3 6.5c.2.3.1.7 0 1s-.5.5-.9.5h-.4l3.3 6.5c.2.3.1.7 0 1-.2.3-.5.5-.9.5h-7v2.7c.1.5-.4 1-.9 1zm-6.4-5.7h12.7l-3.3-6.5c-.2-.3-.1-.7 0-1 .2-.3.5-.5.9-.5h.4l-3.3-6.5c-.2-.3-.1-.7 0-1s.5-.5.9-.5h.2l-2.2-3.8-2.2 3.8h1c.6 0 1 .4 1 1s-.4 1-1 1h-.2l-3 6H1404.2c.6 0 1 .4 1 1s-.4 1-1 1h-2.2l-2.9 6z"/></g><g><path class="st12" d="M1536.5 167.3c-.6 0-1-.4-1-1v-2.7h-7c-.3 0-.7-.2-.9-.5s-.2-.7 0-1l3.3-6.5h-.4c-.3 0-.7-.2-.9-.5s-.2-.7 0-1l3.3-6.5h-.4c-.4 0-.7-.2-.9-.5-.2-.3-.2-.7 0-1l4-6.8c.4-.6 1.4-.6 1.7 0l4 6.8c.2.3.2.7 0 1-.2.3-.5.5-.9.5h-.4l3.3 6.5c.2.3.1.7 0 1s-.5.5-.9.5h-.4l3.3 6.5c.2.3.1.7 0 1-.2.3-.5.5-.9.5h-7v2.7c.1.6-.4 1-.9 1zm-6.4-5.6h12.7l-3.3-6.5c-.2-.3-.1-.7 0-1 .2-.3.5-.5.9-.5h.4l-3.3-6.5c-.2-.3-.1-.7 0-1s.5-.5.9-.5h.2l-2.2-3.8-2.2 3.8h1c.6 0 1 .4 1 1s-.4 1-1 1h-.2l-3 6H1535.2c.6 0 1 .4 1 1s-.4 1-1 1h-2.2l-2.9 6z"/></g><g><path class="st12" d="M1390.1 177c-.6 0-1-.4-1-1v-2.7h-7c-.3 0-.7-.2-.9-.5s-.2-.7 0-1l3.3-6.5h-.4c-.3 0-.7-.2-.9-.5s-.2-.7 0-1l3.3-6.5h-.4c-.4 0-.7-.2-.9-.5-.2-.3-.2-.7 0-1l4-6.8c.4-.6 1.4-.6 1.7 0l4 6.8c.2.3.2.7 0 1-.2.3-.5.5-.9.5h-.4l3.3 6.5c.2.3.1.7 0 1s-.5.5-.9.5h-.4l3.3 6.5c.2.3.1.7 0 1-.2.3-.5.5-.9.5h-7v2.7c.1.5-.3 1-.9 1zm-6.4-5.7h12.7l-3.3-6.5c-.2-.3-.1-.7 0-1 .2-.3.5-.5.9-.5h.4l-3.3-6.5c-.2-.3-.1-.7 0-1s.5-.5.9-.5h.2l-2.2-3.8-2.2 3.8h1c.6 0 1 .4 1 1s-.4 1-1 1h-.2l-3 6H1388.8c.6 0 1 .4 1 1s-.4 1-1 1h-2.2l-2.9 6z"/></g><g><path class="st12" d="M1307.4 213.9c-.6 0-1-.4-1-1v-2.7h-7c-.3 0-.7-.2-.9-.5s-.2-.7 0-1l3.3-6.5h-.4c-.3 0-.7-.2-.9-.5s-.2-.7 0-1l3.3-6.5h-.4c-.4 0-.7-.2-.9-.5-.2-.3-.2-.7 0-1l4-6.8c.4-.6 1.4-.6 1.7 0l4 6.8c.2.3.2.7 0 1-.2.3-.5.5-.9.5h-.4l3.3 6.5c.2.3.1.7 0 1s-.5.5-.9.5h-.4l3.3 6.5c.2.3.1.7 0 1-.2.3-.5.5-.9.5h-7v2.7c.1.5-.4 1-.9 1zm-6.4-5.7h12.7l-3.3-6.5c-.2-.3-.1-.7 0-1 .2-.3.5-.5.9-.5h.4l-3.3-6.5c-.2-.3-.1-.7 0-1s.5-.5.9-.5h.2l-2.2-3.8-2.2 3.8h1c.6 0 1 .4 1 1s-.4 1-1 1h-.2l-3 6H1306.1c.6 0 1 .4 1 1s-.4 1-1 1h-2.2l-2.9 6z"/></g></svg>